<?xml version="1.0" encoding="UTF-8"?><svg id="a" xmlns="http://www.w3.org/2000/svg" viewBox="0 0 640 640"><path d="M482,64H158c-45.612,6.302-94,43.218-94,94v324c6.204,50.184,43.81,87.815,94,94h324c50.186-6.181,87.805-43.82,94-94V158c-6.209-50.208-43.8-87.776-94-94ZM295.571,366.7c0,49.284-28.895,71.716-71.072,71.716-38.109,0-60.178-19.722-71.402-43.476l38.744-23.456c7.477,13.266,14.279,24.481,30.632,24.481,15.638,0,25.502-6.118,25.502-29.908v-161.842h47.596v162.486ZM408.032,438.504c-44.203,0-72.761-21.064-86.734-48.673l38.68-22.471c10.203,16.659,23.476,28.903,46.953,28.903,19.722,0,32.32-9.857,32.32-23.476,0-16.321-12.944-22.102-34.652-31.597l-11.899-5.105c-34.346-14.633-57.163-32.963-57.163-71.716,0-35.697,27.199-62.872,69.706-62.872,30.262,0,52.018,10.532,67.696,38.109l-37.064,23.798c-8.16-14.633-16.964-20.397-30.632-20.397-13.941,0-22.777,8.844-22.777,20.397,0,14.279,8.844,20.059,29.265,28.903l11.899,5.097c40.44,17.342,63.274,35.022,63.274,74.771,0,42.852-33.663,66.329-78.871,66.329Z"/></svg>